<svg width="368" height="368" viewBox="0 0 368 368" fill="none" xmlns="http://www.w3.org/2000/svg">
<g clip-path="url(#clip0)">
<path d="M195 184C195 167.733 201.743 152.133 213.745 140.631C225.747 129.129 242.026 122.667 259 122.667C275.974 122.667 292.253 129.129 304.255 140.631C316.257 152.133 323 167.733 323 184C323 200.267 316.257 215.867 304.255 227.369C292.253 238.871 275.974 245.333 259 245.333C242.026 245.333 225.747 238.871 213.745 227.369C201.743 215.867 195 200.267 195 184Z" fill="#1ABCFE"/>
<path d="M67 306.667C67 290.4 73.7428 274.8 85.7452 263.297C97.7475 251.795 114.026 245.333 131 245.333H195V306.667C195 322.933 188.257 338.534 176.255 350.036C164.253 361.538 147.974 368 131 368C114.026 368 97.7475 361.538 85.7452 350.036C73.7428 338.534 67 322.933 67 306.667V306.667Z" fill="#0ACF83"/>
<path d="M195 0V122.667H259C275.974 122.667 292.253 116.205 304.255 104.703C316.257 93.2003 323 77.5999 323 61.3333C323 45.0667 316.257 29.4663 304.255 17.9641C292.253 6.46189 275.974 0 259 0L195 0Z" fill="#FF7262"/>
<path d="M67 61.3333C67 77.5999 73.7428 93.2003 85.7452 104.703C97.7475 116.205 114.026 122.667 131 122.667H195V0H131C114.026 0 97.7475 6.46189 85.7452 17.9641C73.7428 29.4663 67 45.0667 67 61.3333H67Z" fill="#F24E1E"/>
<path d="M67 184C67 200.267 73.7428 215.867 85.7452 227.369C97.7475 238.871 114.026 245.333 131 245.333H195V122.667H131C114.026 122.667 97.7475 129.129 85.7452 140.631C73.7428 152.133 67 167.733 67 184H67Z" fill="#A259FF"/>
</g>
<defs>
<clipPath id="clip0">
<rect width="256" height="368" fill="white" transform="translate(67)"/>
</clipPath>
</defs>
</svg>
