<svg width="2596" height="2521" viewBox="0 0 2596 2521" fill="none" xmlns="http://www.w3.org/2000/svg">
<path d="M2484.91 82.1008H104.665V2372.68H2484.91V82.1008Z" fill="white" stroke="white" stroke-width="155.666" stroke-linecap="round"/>
<path d="M2563.05 4.00024H4.12646V2449.7H2563.05V4.00024Z" fill="url(#paint0_radial)"/>
<path opacity="0.0958333" d="M10.8636 4.06641C-4.38903 37.3186 8.53535 82.6281 4.55415 120.704C6.27511 501.153 7.99607 881.602 9.71702 1262.05C103.599 1345.04 238.991 1332.43 355.209 1348.54C779.188 1375.83 1205.52 1377.16 1628.15 1329.13C1897.84 1301.9 2167.53 1259.93 2427.79 1183.19C2494.05 1160.94 2577.28 1110.09 2563.09 1029.89C2563.09 687.948 2563.09 346.007 2563.09 4.06641C1712.35 4.06641 861.605 4.06641 10.8636 4.06641V4.06641Z" fill="white"/>
<g opacity="0.5" filter="url(#filter0_f)">
<path opacity="0.5" fill-rule="evenodd" clip-rule="evenodd" d="M1507.9 509.981C1464.1 555.267 1465.27 627.475 1510.51 671.323C1510.51 671.323 1745.75 905.583 2039.79 1198.4C2102.63 1260.98 2112.76 1336.14 2081.33 1445C2049.9 1553.87 1968.56 1681.59 1864.11 1786.48C1759.66 1891.36 1632.28 1973.24 1523.54 2005.12C1414.81 2037 1339.61 2027.18 1276.77 1964.61C1130.18 1818.62 999.299 1685.92 904.111 1589.97C856.518 1542 817.999 1503.27 790.199 1476.03C776.299 1462.41 765.296 1451.93 755.827 1443.31C751.092 1439 747.22 1435.48 740.581 1430.31C737.262 1427.73 734.166 1424.82 723.91 1419.08C718.783 1416.21 712.64 1412.08 695.3 1407.7C677.959 1403.33 628.783 1394.96 586.06 1437.86C560.641 1462.74 548.267 1498.04 552.594 1533.34C556.921 1568.64 577.453 1599.91 608.128 1617.91C613.773 1623.2 620.216 1629.11 630.453 1639.14C656.381 1664.54 694.696 1703.04 742.09 1750.82C836.879 1846.36 968.233 1979.54 1115.68 2126.37C1243.97 2254.13 1427.73 2271.12 1587.82 2224.18C1747.91 2177.24 1899.31 2074.67 2025.88 1947.57C2152.45 1820.48 2254.39 1668.65 2300.66 1508.36C2346.93 1348.08 2329.17 1164.39 2200.88 1036.64C1906.84 743.816 1671.6 509.556 1671.6 509.556C1650.05 487.505 1620.49 475.109 1589.66 475.189C1558.83 475.269 1529.34 487.818 1507.9 509.981Z" fill="black"/>
<path opacity="0.5" fill-rule="evenodd" clip-rule="evenodd" d="M1045.35 979.348C1001.55 1024.63 1002.72 1096.84 1047.96 1140.69L1641.36 1731.62C1670.12 1761.08 1712.51 1772.77 1752.31 1762.22C1792.1 1751.67 1823.13 1720.51 1833.52 1680.67C1843.9 1640.83 1832.03 1598.49 1802.45 1569.85L1209.05 978.923C1187.5 956.872 1157.95 944.476 1127.11 944.556C1096.28 944.636 1066.79 957.185 1045.35 979.348Z" fill="black"/>
<path opacity="0.5" d="M483.26 1169.03C527.931 1213.51 528.081 1285.79 483.596 1330.46C439.112 1375.13 366.837 1375.28 322.166 1330.79C277.495 1286.31 277.344 1214.03 321.829 1169.36C366.314 1124.69 438.589 1124.54 483.26 1169.03Z" fill="black"/>
<path opacity="0.5" d="M939.693 710.685C984.364 755.17 984.514 827.445 940.03 872.115C895.545 916.786 823.27 916.937 778.599 872.452C733.928 827.967 733.777 755.692 778.262 711.021C822.747 666.351 895.022 666.2 939.693 710.685Z" fill="black"/>
<path opacity="0.5" d="M1409.55 238.864C1454.22 283.349 1454.37 355.624 1409.89 400.295C1365.4 444.965 1293.13 445.116 1248.46 400.631C1203.79 356.146 1203.64 283.871 1248.12 239.201C1292.6 194.53 1364.88 194.379 1409.55 238.864Z" fill="black"/>
</g>
<path d="M2563.05 4.00024H4.12646V2449.7H2563.05V4.00024Z" stroke="black" stroke-width="7.92588" stroke-linecap="round"/>
<path d="M2563.05 4.00024H4.12646V2449.7H2563.05V4.00024Z" stroke="black" stroke-width="7.92588" stroke-linecap="round"/>
<path d="M1113.75 4V2449.7V4Z" stroke="black" stroke-width="7.92588" stroke-linecap="round"/>
<path d="M1110.26 802.815H7.61157H1110.26Z" stroke="black" stroke-width="7.92588" stroke-linecap="round"/>
<path d="M1110.26 1642.96H7.61157H1110.26Z" stroke="black" stroke-width="7.92588" stroke-linecap="round"/>
<path opacity="0.87" fill-rule="evenodd" clip-rule="evenodd" d="M1507.9 509.981C1464.1 555.267 1465.27 627.475 1510.51 671.323C1510.51 671.323 1745.75 905.583 2039.79 1198.4C2102.63 1260.98 2112.76 1336.14 2081.33 1445C2049.9 1553.87 1968.56 1681.59 1864.11 1786.48C1759.66 1891.36 1632.28 1973.24 1523.54 2005.12C1414.81 2037 1339.61 2027.18 1276.77 1964.61C1130.18 1818.62 999.299 1685.92 904.111 1589.97C856.518 1542 817.999 1503.27 790.199 1476.03C776.3 1462.41 765.296 1451.93 755.827 1443.31C751.092 1439 747.221 1435.47 740.582 1430.31C737.262 1427.73 734.166 1424.82 723.911 1419.08C718.783 1416.21 712.64 1412.08 695.3 1407.7C677.96 1403.33 628.783 1394.96 586.06 1437.86C560.641 1462.74 548.267 1498.04 552.594 1533.34C556.921 1568.64 577.454 1599.91 608.128 1617.91C613.773 1623.2 620.216 1629.11 630.453 1639.14C656.381 1664.54 694.697 1703.04 742.091 1750.82C836.879 1846.36 968.233 1979.54 1115.68 2126.37C1243.97 2254.13 1427.73 2271.12 1587.82 2224.18C1747.91 2177.24 1899.31 2074.67 2025.88 1947.57C2152.45 1820.48 2254.39 1668.65 2300.66 1508.36C2346.93 1348.08 2329.17 1164.39 2200.88 1036.64C1906.84 743.816 1671.6 509.556 1671.6 509.556C1650.05 487.505 1620.49 475.109 1589.66 475.189C1558.83 475.268 1529.34 487.818 1507.9 509.981V509.981Z" fill="white"/>
<path opacity="0.87" fill-rule="evenodd" clip-rule="evenodd" d="M1045.35 979.349C1001.55 1024.63 1002.72 1096.84 1047.96 1140.69L1641.36 1731.62C1670.12 1761.08 1712.51 1772.77 1752.31 1762.22C1792.1 1751.67 1823.13 1720.51 1833.52 1680.67C1843.9 1640.83 1832.03 1598.49 1802.45 1569.85L1209.05 978.923C1187.5 956.872 1157.95 944.476 1127.11 944.556C1096.28 944.635 1066.79 957.186 1045.35 979.349V979.349Z" fill="white"/>
<path opacity="0.87" fill-rule="evenodd" clip-rule="evenodd" d="M483.26 1169.03C527.931 1213.51 528.082 1285.79 483.597 1330.46C439.112 1375.13 366.837 1375.28 322.166 1330.79C277.495 1286.31 277.345 1214.03 321.829 1169.36C366.314 1124.69 438.589 1124.54 483.26 1169.03Z" fill="white"/>
<path opacity="0.87" fill-rule="evenodd" clip-rule="evenodd" d="M939.693 710.685C984.364 755.17 984.515 827.445 940.03 872.115C895.545 916.786 823.27 916.937 778.599 872.452C733.928 827.967 733.778 755.692 778.263 711.021C822.747 666.351 895.022 666.2 939.693 710.685Z" fill="white"/>
<path opacity="0.87" fill-rule="evenodd" clip-rule="evenodd" d="M1409.55 238.864C1454.22 283.349 1454.37 355.624 1409.89 400.294C1365.4 444.965 1293.13 445.116 1248.46 400.631C1203.79 356.146 1203.64 283.871 1248.12 239.2C1292.6 194.53 1364.88 194.379 1409.55 238.864Z" fill="white"/>
<defs>
<filter id="filter0_f" x="214.49" y="131.525" width="2380.79" height="2388.76" filterUnits="userSpaceOnUse" color-interpolation-filters="sRGB">
<feFlood flood-opacity="0" result="BackgroundImageFix"/>
<feBlend mode="normal" in="SourceGraphic" in2="BackgroundImageFix" result="shape"/>
<feGaussianBlur stdDeviation="13.3962" result="effect1_foregroundBlur"/>
</filter>
<radialGradient id="paint0_radial" cx="0" cy="0" r="1" gradientUnits="userSpaceOnUse" gradientTransform="translate(1790.76 2019.44) rotate(-45.5762) scale(2121.54 3620.86)">
<stop stop-color="#189FFF" stop-opacity="0.380392"/>
<stop offset="1" stop-color="#010B2B"/>
</radialGradient>
</defs>
</svg>