<svg width="227" height="140" viewBox="0 0 227 140" fill="none" xmlns="http://www.w3.org/2000/svg">
<rect width="226.8" height="139.2" fill="black" fill-opacity="0"/>
<rect width="226.8" height="139.2" fill="black" fill-opacity="0"/>
<path fill-rule="evenodd" clip-rule="evenodd" d="M7 139.2H86C86 139.2 70.9 70.3 120.9 42.4C131.8 37.1 166.5 17.3 223.3 59.3C225.1 57.8 226.8 56.6 226.8 56.6C226.8 56.6 174.8 4.70001 116.9 10.5C87.8 13.1 52 39.6 31 74.6C10 109.6 7 139.2 7 139.2Z" fill="#CC0000"/>
<path fill-rule="evenodd" clip-rule="evenodd" d="M162.1 37.3L161.7 43.6C165 43.7 168.3 44.1 171.6 44.8L172 38.6C168.6 37.9 165.3 37.5 162.1 37.3ZM125.1 6.1H126.1L124.1 0C121 0 117.8 0.2 114.5 0.6L116.4 6.5C119.3 6.2 122.2 6.1 125.1 6.1ZM129.9 42.9L132.2 49.8C135.1 48.4 138 47.2 140.9 46.3L138.7 39.7C135.3 40.7 132.4 41.8 129.9 42.9ZM84.5 16.6L80 9.7C77.5 11 74.9 12.4 72.2 14L76.8 21C79.4 19.4 81.9 17.9 84.5 16.6ZM105 61.6L109.8 68.8C111.5 66.3 113.5 64 115.7 61.7L111.2 54.9C108.9 57 106.8 59.3 105 61.6ZM90.5 93.8L98.6 100.2C99 96.3 99.7 92.4 100.7 88.5L93.5 82.8C92.2 86.5 91.3 90.2 90.5 93.8ZM46.7 46.3L39.6 40.1C37 42.6 34.5 45.1 32.2 47.6L39.9 54.2C42 51.5 44.3 48.8 46.7 46.3ZM16.5 91L5 86.8C3.1 91.1 1 96.1 0 98.8L11.5 103C12.8 99.6 14.9 94.7 16.5 91ZM89 119.2C89.2 124.5 89.7 128.8 90.2 131.8L102.2 136.1C101.3 132.2 100.4 127.8 99.8 123.1L89 119.2Z" fill="#CC0000"/>
</svg>
