<svg width="95" height="113" viewBox="0 0 95 113" fill="none" xmlns="http://www.w3.org/2000/svg">
<path d="M88.23 15.39C77.83 0.509993 57.29 -3.90001 42.44 5.55999L16.36 22.18C12.84 24.3908 9.8197 27.3112 7.49181 30.7549C5.16391 34.1985 3.57959 38.0897 2.84 42.18C1.59286 49.0837 2.68375 56.2061 5.94 62.42C3.70829 65.8055 2.18755 69.6091 1.47 73.6C0.725123 77.7807 0.823545 82.0682 1.75948 86.2103C2.69541 90.3524 4.44996 94.2657 6.92 97.72C17.32 112.6 37.86 117.01 52.71 107.55L78.79 91C82.3059 88.7845 85.3232 85.8628 87.6505 82.4199C89.9779 78.9771 91.5646 75.0883 92.31 71C93.5526 64.0985 92.4582 56.9796 89.2 50.77C91.4306 47.3828 92.9543 43.5802 93.68 39.59C94.4226 35.4092 94.3231 31.1222 93.3872 26.9804C92.4514 22.8386 90.698 18.9253 88.23 15.47" fill="#FF3E00"/>
<path d="M39.89 99.16C35.7842 100.225 31.4503 100.006 27.4734 98.5304C23.4964 97.0551 20.0677 94.3954 17.65 90.91C16.1655 88.8333 15.1115 86.4806 14.5499 83.9904C13.9883 81.5002 13.9306 78.9229 14.38 76.41C14.5275 75.5926 14.7347 74.7871 15 74L15.49 72.5L16.83 73.5C19.9101 75.7487 23.3487 77.4595 27 78.56L28 78.85L27.91 79.85C27.8138 81.2211 28.1993 82.5828 29 83.7C29.7295 84.7485 30.7628 85.5483 31.9607 85.9917C33.1586 86.4351 34.4636 86.5008 35.7 86.18C36.2653 86.0281 36.8047 85.7921 37.3 85.48L63.34 68.86C63.9795 68.4576 64.5279 67.9259 64.9498 67.299C65.3717 66.6722 65.6579 65.964 65.79 65.22C65.9233 64.4617 65.9035 63.6844 65.7317 62.9339C65.56 62.1834 65.2398 61.4749 64.79 60.85C64.0605 59.8015 63.0272 59.0017 61.8293 58.5583C60.6314 58.1149 59.3264 58.0492 58.09 58.37C57.524 58.5201 56.9843 58.7562 56.49 59.07L46.49 65.42C44.8545 66.4571 43.0707 67.2393 41.2 67.74C37.101 68.799 32.7759 68.577 28.8069 67.1038C24.8379 65.6306 21.4154 62.977 19 59.5C17.52 57.4213 16.4702 55.0679 15.9121 52.5779C15.354 50.0879 15.2989 47.5116 15.75 45C16.1916 42.5348 17.1428 40.1889 18.5427 38.1123C19.9426 36.0357 21.7604 34.274 23.88 32.94L50 16.32C51.6259 15.285 53.3994 14.5028 55.26 14C59.3643 12.9339 63.697 13.1533 67.6725 14.6288C71.6481 16.1042 75.0749 18.7644 77.49 22.25C78.9762 24.326 80.032 26.6783 80.5953 29.1685C81.1586 31.6588 81.218 34.2365 80.77 36.75C80.614 37.5721 80.4069 38.3837 80.15 39.18L79.65 40.68L78.32 39.68C75.2336 37.4142 71.7845 35.6897 68.12 34.58L67.12 34.29L67.21 33.29C67.3255 31.9121 66.95 30.5378 66.15 29.41C65.4159 28.3796 64.3855 27.597 63.1958 27.1665C62.0061 26.736 60.7135 26.6779 59.49 27C58.924 27.1501 58.3844 27.3862 57.89 27.7L31.8 44.29C31.1628 44.6927 30.616 45.2233 30.1943 45.8481C29.7726 46.4729 29.4851 47.1784 29.35 47.92C29.2193 48.68 29.2403 49.4583 29.412 50.21C29.5836 50.9618 29.9024 51.6721 30.35 52.3C31.0762 53.339 32.1011 54.1326 33.2888 54.5755C34.4765 55.0185 35.7708 55.0898 37 54.78C37.5646 54.626 38.1037 54.3901 38.6 54.08L48.6 47.74C50.2343 46.6916 52.0226 45.9054 53.9 45.41C58.0033 44.3414 62.3357 44.5586 66.3115 46.0323C70.2873 47.506 73.7146 50.1651 76.13 53.65C77.6152 55.7265 78.6704 58.0789 79.2336 60.5689C79.7969 63.059 79.8569 65.6365 79.41 68.15C78.9684 70.6152 78.0172 72.9611 76.6173 75.0377C75.2174 77.1143 73.3995 78.876 71.28 80.21L45.19 96.83C43.5514 97.8704 41.7644 98.656 39.89 99.16" fill="white"/>
</svg>
